<mxfile host="app.diagrams.net" agent="Mozilla/5.0 (Windows NT 10.0; Win64; x64) AppleWebKit/537.36 (KHTML, like Gecko) Chrome/128.0.0.0 Safari/537.36 OPR/114.0.0.0" version="25.0.3">
  <diagram id="C5RBs43oDa-KdzZeNtuy" name="Page-1">
    <mxGraphModel dx="1009" dy="619" grid="1" gridSize="10" guides="1" tooltips="1" connect="1" arrows="1" fold="1" page="1" pageScale="1" pageWidth="827" pageHeight="1169" math="0" shadow="0">
      <root>
        <mxCell id="WIyWlLk6GJQsqaUBKTNV-0" />
        <mxCell id="WIyWlLk6GJQsqaUBKTNV-1" parent="WIyWlLk6GJQsqaUBKTNV-0" />
        <mxCell id="BogthpQwekrEgWl64NNX-10" style="edgeStyle=orthogonalEdgeStyle;rounded=0;orthogonalLoop=1;jettySize=auto;html=1;entryX=0.5;entryY=0;entryDx=0;entryDy=0;" edge="1" parent="WIyWlLk6GJQsqaUBKTNV-1" source="BogthpQwekrEgWl64NNX-0" target="BogthpQwekrEgWl64NNX-1">
          <mxGeometry relative="1" as="geometry" />
        </mxCell>
        <mxCell id="BogthpQwekrEgWl64NNX-0" value="start" style="strokeWidth=2;html=1;shape=mxgraph.flowchart.start_1;whiteSpace=wrap;" vertex="1" parent="WIyWlLk6GJQsqaUBKTNV-1">
          <mxGeometry x="360" y="190" width="100" height="60" as="geometry" />
        </mxCell>
        <mxCell id="BogthpQwekrEgWl64NNX-1" value="input n" style="shape=parallelogram;html=1;strokeWidth=2;perimeter=parallelogramPerimeter;whiteSpace=wrap;rounded=1;arcSize=12;size=0.23;" vertex="1" parent="WIyWlLk6GJQsqaUBKTNV-1">
          <mxGeometry x="360" y="290" width="100" height="60" as="geometry" />
        </mxCell>
        <mxCell id="BogthpQwekrEgWl64NNX-12" style="edgeStyle=orthogonalEdgeStyle;rounded=0;orthogonalLoop=1;jettySize=auto;html=1;" edge="1" parent="WIyWlLk6GJQsqaUBKTNV-1" source="BogthpQwekrEgWl64NNX-2" target="BogthpQwekrEgWl64NNX-5">
          <mxGeometry relative="1" as="geometry" />
        </mxCell>
        <mxCell id="BogthpQwekrEgWl64NNX-2" value="n&amp;lt;=1" style="strokeWidth=2;html=1;shape=mxgraph.flowchart.decision;whiteSpace=wrap;" vertex="1" parent="WIyWlLk6GJQsqaUBKTNV-1">
          <mxGeometry x="360" y="380" width="100" height="100" as="geometry" />
        </mxCell>
        <mxCell id="BogthpQwekrEgWl64NNX-5" value="input i = 2" style="shape=parallelogram;html=1;strokeWidth=2;perimeter=parallelogramPerimeter;whiteSpace=wrap;rounded=1;arcSize=12;size=0.23;" vertex="1" parent="WIyWlLk6GJQsqaUBKTNV-1">
          <mxGeometry x="510" y="400" width="100" height="60" as="geometry" />
        </mxCell>
        <mxCell id="BogthpQwekrEgWl64NNX-6" value="i+=1; i&amp;lt;sqrt(n)" style="strokeWidth=2;html=1;shape=mxgraph.flowchart.decision;whiteSpace=wrap;" vertex="1" parent="WIyWlLk6GJQsqaUBKTNV-1">
          <mxGeometry x="510" y="510" width="100" height="100" as="geometry" />
        </mxCell>
        <mxCell id="BogthpQwekrEgWl64NNX-15" style="edgeStyle=orthogonalEdgeStyle;rounded=0;orthogonalLoop=1;jettySize=auto;html=1;entryX=0.5;entryY=0;entryDx=0;entryDy=0;entryPerimeter=0;" edge="1" parent="WIyWlLk6GJQsqaUBKTNV-1" source="BogthpQwekrEgWl64NNX-9" target="BogthpQwekrEgWl64NNX-18">
          <mxGeometry relative="1" as="geometry">
            <mxPoint x="560" y="800" as="targetPoint" />
          </mxGeometry>
        </mxCell>
        <mxCell id="BogthpQwekrEgWl64NNX-9" value="n%i==0" style="strokeWidth=2;html=1;shape=mxgraph.flowchart.decision;whiteSpace=wrap;" vertex="1" parent="WIyWlLk6GJQsqaUBKTNV-1">
          <mxGeometry x="510" y="650" width="100" height="100" as="geometry" />
        </mxCell>
        <mxCell id="BogthpQwekrEgWl64NNX-11" style="edgeStyle=orthogonalEdgeStyle;rounded=0;orthogonalLoop=1;jettySize=auto;html=1;entryX=0.5;entryY=0;entryDx=0;entryDy=0;entryPerimeter=0;" edge="1" parent="WIyWlLk6GJQsqaUBKTNV-1" source="BogthpQwekrEgWl64NNX-1" target="BogthpQwekrEgWl64NNX-2">
          <mxGeometry relative="1" as="geometry" />
        </mxCell>
        <mxCell id="BogthpQwekrEgWl64NNX-13" style="edgeStyle=orthogonalEdgeStyle;rounded=0;orthogonalLoop=1;jettySize=auto;html=1;entryX=0.5;entryY=0;entryDx=0;entryDy=0;entryPerimeter=0;" edge="1" parent="WIyWlLk6GJQsqaUBKTNV-1" source="BogthpQwekrEgWl64NNX-5" target="BogthpQwekrEgWl64NNX-6">
          <mxGeometry relative="1" as="geometry" />
        </mxCell>
        <mxCell id="BogthpQwekrEgWl64NNX-14" style="edgeStyle=orthogonalEdgeStyle;rounded=0;orthogonalLoop=1;jettySize=auto;html=1;entryX=0.5;entryY=0;entryDx=0;entryDy=0;entryPerimeter=0;" edge="1" parent="WIyWlLk6GJQsqaUBKTNV-1" source="BogthpQwekrEgWl64NNX-6" target="BogthpQwekrEgWl64NNX-9">
          <mxGeometry relative="1" as="geometry" />
        </mxCell>
        <mxCell id="BogthpQwekrEgWl64NNX-16" value="false" style="text;html=1;align=center;verticalAlign=middle;resizable=0;points=[];autosize=1;strokeColor=none;fillColor=none;" vertex="1" parent="WIyWlLk6GJQsqaUBKTNV-1">
          <mxGeometry x="510" y="750" width="50" height="30" as="geometry" />
        </mxCell>
        <mxCell id="BogthpQwekrEgWl64NNX-18" value="N la so nguyen to" style="strokeWidth=2;html=1;shape=mxgraph.flowchart.display;whiteSpace=wrap;" vertex="1" parent="WIyWlLk6GJQsqaUBKTNV-1">
          <mxGeometry x="510" y="830" width="100" height="60" as="geometry" />
        </mxCell>
        <mxCell id="BogthpQwekrEgWl64NNX-19" value="N khong phai la so nguyen to" style="strokeWidth=2;html=1;shape=mxgraph.flowchart.display;whiteSpace=wrap;" vertex="1" parent="WIyWlLk6GJQsqaUBKTNV-1">
          <mxGeometry x="360" y="750" width="100" height="60" as="geometry" />
        </mxCell>
        <mxCell id="BogthpQwekrEgWl64NNX-20" style="edgeStyle=orthogonalEdgeStyle;rounded=0;orthogonalLoop=1;jettySize=auto;html=1;entryX=0.5;entryY=0;entryDx=0;entryDy=0;entryPerimeter=0;" edge="1" parent="WIyWlLk6GJQsqaUBKTNV-1" source="BogthpQwekrEgWl64NNX-9" target="BogthpQwekrEgWl64NNX-19">
          <mxGeometry relative="1" as="geometry" />
        </mxCell>
        <mxCell id="BogthpQwekrEgWl64NNX-21" value="true" style="text;html=1;align=center;verticalAlign=middle;resizable=0;points=[];autosize=1;strokeColor=none;fillColor=none;" vertex="1" parent="WIyWlLk6GJQsqaUBKTNV-1">
          <mxGeometry x="450" y="668" width="40" height="30" as="geometry" />
        </mxCell>
        <mxCell id="BogthpQwekrEgWl64NNX-22" style="edgeStyle=orthogonalEdgeStyle;rounded=0;orthogonalLoop=1;jettySize=auto;html=1;entryX=1;entryY=0.5;entryDx=0;entryDy=0;entryPerimeter=0;" edge="1" parent="WIyWlLk6GJQsqaUBKTNV-1" source="BogthpQwekrEgWl64NNX-18" target="BogthpQwekrEgWl64NNX-6">
          <mxGeometry relative="1" as="geometry">
            <Array as="points">
              <mxPoint x="750" y="860" />
              <mxPoint x="750" y="560" />
            </Array>
          </mxGeometry>
        </mxCell>
        <mxCell id="BogthpQwekrEgWl64NNX-24" value="End" style="strokeWidth=2;html=1;shape=mxgraph.flowchart.start_1;whiteSpace=wrap;" vertex="1" parent="WIyWlLk6GJQsqaUBKTNV-1">
          <mxGeometry x="200" y="790" width="100" height="60" as="geometry" />
        </mxCell>
        <mxCell id="BogthpQwekrEgWl64NNX-25" style="edgeStyle=orthogonalEdgeStyle;rounded=0;orthogonalLoop=1;jettySize=auto;html=1;entryX=0.5;entryY=0;entryDx=0;entryDy=0;entryPerimeter=0;" edge="1" parent="WIyWlLk6GJQsqaUBKTNV-1" source="BogthpQwekrEgWl64NNX-6" target="BogthpQwekrEgWl64NNX-24">
          <mxGeometry relative="1" as="geometry" />
        </mxCell>
        <mxCell id="BogthpQwekrEgWl64NNX-26" value="false" style="text;html=1;align=center;verticalAlign=middle;resizable=0;points=[];autosize=1;strokeColor=none;fillColor=none;" vertex="1" parent="WIyWlLk6GJQsqaUBKTNV-1">
          <mxGeometry x="410" y="530" width="50" height="30" as="geometry" />
        </mxCell>
        <mxCell id="BogthpQwekrEgWl64NNX-27" value="true" style="text;html=1;align=center;verticalAlign=middle;resizable=0;points=[];autosize=1;strokeColor=none;fillColor=none;" vertex="1" parent="WIyWlLk6GJQsqaUBKTNV-1">
          <mxGeometry x="520" y="608" width="40" height="30" as="geometry" />
        </mxCell>
        <mxCell id="BogthpQwekrEgWl64NNX-28" style="edgeStyle=orthogonalEdgeStyle;rounded=0;orthogonalLoop=1;jettySize=auto;html=1;entryX=1;entryY=0.5;entryDx=0;entryDy=0;entryPerimeter=0;" edge="1" parent="WIyWlLk6GJQsqaUBKTNV-1" source="BogthpQwekrEgWl64NNX-19" target="BogthpQwekrEgWl64NNX-24">
          <mxGeometry relative="1" as="geometry">
            <Array as="points">
              <mxPoint x="410" y="820" />
            </Array>
          </mxGeometry>
        </mxCell>
      </root>
    </mxGraphModel>
  </diagram>
</mxfile>
